<?xml version="1.0" encoding="UTF-8" standalone="no"?>
<svg xmlns="http://www.w3.org/2000/svg" width="24" height="24" viewBox="0 0 24 24">
  <g id="active-center" transform="translate(4,4)">
    <g transform="translate(8,8)" opacity="0.85">
      
      <g fill="none" stroke="#ffffff" stroke-width="1.1"><rect x="-4" y="-4" width="8" height="8" rx="0.8"/><path d="M -4 0 L 4 0 M 0 -4 L 0 4"/></g>
    </g>
  </g>
  <g id="hover-center" transform="translate(32,4)">
    <g transform="translate(8,8)" opacity="1.0">
      <rect x="-7" y="-7" width="14" height="14" rx="4" ry="4" fill="rgba(255,255,255,0.10)"/>
      <g fill="none" stroke="#ffffff" stroke-width="1.1"><rect x="-4" y="-4" width="8" height="8" rx="0.8"/><path d="M -4 0 L 4 0 M 0 -4 L 0 4"/></g>
    </g>
  </g>
  <g id="pressed-center" transform="translate(60,4)">
    <g transform="translate(8,8)" opacity="1.0">
      <rect x="-7" y="-7" width="14" height="14" rx="4" ry="4" fill="rgba(255,255,255,0.18)"/>
      <g fill="none" stroke="#ffffff" stroke-width="1.1"><rect x="-4" y="-4" width="8" height="8" rx="0.8"/><path d="M -4 0 L 4 0 M 0 -4 L 0 4"/></g>
    </g>
  </g>
  <g id="inactive-center" transform="translate(88,4)">
    <g transform="translate(8,8)" opacity="0.5">
      
      <g fill="none" stroke="#ffffff" stroke-width="1.1"><rect x="-4" y="-4" width="8" height="8" rx="0.8"/><path d="M -4 0 L 4 0 M 0 -4 L 0 4"/></g>
    </g>
  </g>
  <g id="hover-inactive-center" transform="translate(116,4)">
    <g transform="translate(8,8)" opacity="0.85">
      <rect x="-7" y="-7" width="14" height="14" rx="4" ry="4" fill="rgba(255,255,255,0.10)"/>
      <g fill="none" stroke="#ffffff" stroke-width="1.1"><rect x="-4" y="-4" width="8" height="8" rx="0.8"/><path d="M -4 0 L 4 0 M 0 -4 L 0 4"/></g>
    </g>
  </g>
  <g id="deactivated-center" transform="translate(144,4)">
    <g transform="translate(8,8)" opacity="0.3">
      
      <g fill="none" stroke="#ffffff" stroke-width="1.1"><rect x="-4" y="-4" width="8" height="8" rx="0.8"/><path d="M -4 0 L 4 0 M 0 -4 L 0 4"/></g>
    </g>
  </g>
  <g id="deactivated-inactive-center" transform="translate(172,4)">
    <g transform="translate(8,8)" opacity="0.2">
      
      <g fill="none" stroke="#ffffff" stroke-width="1.1"><rect x="-4" y="-4" width="8" height="8" rx="0.8"/><path d="M -4 0 L 4 0 M 0 -4 L 0 4"/></g>
    </g>
  </g>
</svg>
