<svg width="512" height="512" viewBox="0 0 512 512" fill="none" xmlns="http://www.w3.org/2000/svg">
    
    
    
    <g id="active-center"><rect width="512" height="512" fill="transparent" opacity="0"/><rect x="126" y="126" width="260" height="15" fill="white"/>
<rect x="126" y="371" width="260" height="15" fill="white"/>
<rect x="126" y="386" width="260" height="15" transform="rotate(-90 126 386)" fill="white"/>
<rect x="371" y="386" width="260" height="15" transform="rotate(-90 371 386)" fill="white"/></g>
    <g id="hover-center"><rect width="512" height="512" rx="100" fill="#4D4D50"/>
<rect x="126" y="126" width="260" height="15" fill="white"/>
<rect x="126" y="371" width="260" height="15" fill="white"/>
<rect x="126" y="386" width="260" height="15" transform="rotate(-90 126 386)" fill="white"/>
<rect x="371" y="386" width="260" height="15" transform="rotate(-90 371 386)" fill="white"/></g>
    <g id="pressed-center" opacity="0.8"><rect width="512" height="512" rx="100" fill="#4D4D50"/>
<rect x="126" y="126" width="260" height="15" fill="white"/>
<rect x="126" y="371" width="260" height="15" fill="white"/>
<rect x="126" y="386" width="260" height="15" transform="rotate(-90 126 386)" fill="white"/>
<rect x="371" y="386" width="260" height="15" transform="rotate(-90 371 386)" fill="white"/></g>
    <g id="inactive-center" opacity="0.5"><rect width="512" height="512" fill="transparent" opacity="0"/><rect x="126" y="126" width="260" height="15" fill="white"/>
<rect x="126" y="371" width="260" height="15" fill="white"/>
<rect x="126" y="386" width="260" height="15" transform="rotate(-90 126 386)" fill="white"/>
<rect x="371" y="386" width="260" height="15" transform="rotate(-90 371 386)" fill="white"/></g>
    
    
    
    </svg>