<?xml version="1.0" encoding="UTF-8" standalone="no"?>
<svg xmlns="http://www.w3.org/2000/svg" width="150" height="30" viewBox="0 0 150 30">
<g id="active-center"><g transform="translate(15,15)" stroke="#ffffff" stroke-width="1.4" stroke-linecap="round" fill="none" opacity="0.7"><path d="M -4 -1 L 4 -1 M -3 2 L 3 2"/></g></g>
<g id="hover-center"><rect x="34" y="4" width="22" height="22" rx="6" ry="6" fill="rgba(255,255,255,0.12)"/><g transform="translate(45,15)" stroke="#ffffff" stroke-width="1.4" stroke-linecap="round" fill="none" opacity="1.0"><path d="M -4 -1 L 4 -1 M -3 2 L 3 2"/></g></g>
<g id="pressed-center"><rect x="64" y="4" width="22" height="22" rx="6" ry="6" fill="rgba(255,255,255,0.20)"/><g transform="translate(75,15)" stroke="#ffffff" stroke-width="1.4" stroke-linecap="round" fill="none" opacity="1.0"><path d="M -4 -1 L 4 -1 M -3 2 L 3 2"/></g></g>
<g id="inactive-center"><g transform="translate(105,15)" stroke="#ffffff" stroke-width="1.4" stroke-linecap="round" fill="none" opacity="0.35"><path d="M -4 -1 L 4 -1 M -3 2 L 3 2"/></g></g>
<g id="deactivated-center"><g transform="translate(135,15)" stroke="#ffffff" stroke-width="1.4" stroke-linecap="round" fill="none" opacity="0.18"><path d="M -4 -1 L 4 -1 M -3 2 L 3 2"/></g></g>
</svg>