<?xml version="1.0" encoding="UTF-8" standalone="no"?>
<svg
   viewBox="0 0 144 126"
   version="1.0"
   height="126"
   width="144"
   id="svg2"
   sodipodi:docname="tasks.svgz"
   inkscape:version="1.4.2 (ebf0e940d0, 2025-05-08)"
   xmlns:inkscape="http://www.inkscape.org/namespaces/inkscape"
   xmlns:sodipodi="http://sodipodi.sourceforge.net/DTD/sodipodi-0.dtd"
   xmlns="http://www.w3.org/2000/svg"
   xmlns:svg="http://www.w3.org/2000/svg">
  <sodipodi:namedview
     pagecolor="#cccccc"
     bordercolor="#666666"
     borderopacity="1"
     objecttolerance="10"
     gridtolerance="10"
     guidetolerance="10"
     inkscape:pageopacity="0"
     inkscape:pageshadow="2"
     inkscape:window-width="1920"
     inkscape:window-height="1014"
     id="namedview717"
     showgrid="true"
     inkscape:zoom="24.730158"
     inkscape:cx="84.067397"
     inkscape:cy="-47.795894"
     inkscape:window-x="0"
     inkscape:window-y="0"
     inkscape:window-maximized="1"
     inkscape:current-layer="svg2"
     inkscape:document-rotation="0"
     inkscape:pagecheckerboard="0"
     inkscape:showpageshadow="2"
     inkscape:deskcolor="#cccccc"
     showguides="true">
    <inkscape:grid
       type="xygrid"
       id="grid1524"
       originx="0"
       originy="0"
       spacingy="1"
       spacingx="1"
       units="px"
       visible="true" />
  </sodipodi:namedview>
  <defs
     id="null">
    <style
       id="current-color-scheme"
       type="text/css"> 
      .ColorScheme-Text {
        
        color:#5197FF;
      }
      .ColorScheme-Background {
        color:#eff0f1;
      }
      .ColorScheme-ButtonFocus {
        color:#3daee9;
      }
      .ColorScheme-ViewText {
        
      }
      .ColorScheme-ViewBackground {
        color:#fcfcfc;
      }
      .ColorScheme-ViewHover {
        color:#93cee9;
      }
      .ColorScheme-ViewFocus{
        color:#3daee9;
      }
      .ColorScheme-ButtonText {
        
      }
      .ColorScheme-ButtonBackground {
        color:#eff0f1;
      }
      .ColorScheme-ButtonHover {
        color:#93cee9;
      }
      .ColorScheme-ButtonFocus{
        color:#3daee9;
      }
      .ColorScheme-Text {
        
      }
      .ColorScheme-NeutralText {
        color:#f67400;
      }
      .ColorScheme-PositiveText {
        color:#27ae60;
      }
</style>
  </defs>
  <g
     transform="matrix(1.2222222,0,0,1.2222222,-72.992553,-98.777787)"
     id="group-expander-bottom">
    <path
       style="fill:#2ecc71;fill-opacity:1;stroke:none;stroke-width:1"
       d="m 211.5,88.999998 a 4.4999981,4.5000003 0 0 0 -4.5,4.5 4.4999981,4.5000003 0 0 0 4.5,4.500001 4.4999981,4.5000003 0 0 0 4.50001,-4.500001 4.4999981,4.5000003 0 0 0 -4.50001,-4.5 z"
       id="path4931"
       inkscape:connector-curvature="0" />
    <path
       style="fill:#ffffff;fill-opacity:1;stroke:none"
       d="m 211.08482,91.454555 9.7e-4,1.630633 -1.63474,0.01145 0.007,0.807899 1.6392,0.0091 -0.006,1.634319 0.8077,-0.005 0.007,-1.631624 1.63951,-2.7e-5 v -0.814687 h -1.64611 l 0.0204,-1.642079 z"
       id="path4949" />
  </g>
  <g
     id="group-expander-left"
     transform="matrix(1.2222222,0,0,1.2222222,-50.992553,-98.777787)">
    <path
       id="path4938"
       d="m 211.5,88.999998 a 4.4999981,4.5000003 0 0 0 -4.5,4.5 4.4999981,4.5000003 0 0 0 4.5,4.500001 4.4999981,4.5000003 0 0 0 4.50001,-4.500001 4.4999981,4.5000003 0 0 0 -4.50001,-4.5 z"
       style="fill:#2ecc71;fill-opacity:1;stroke:none;stroke-width:1"
       inkscape:connector-curvature="0" />
    <path
       id="path4942"
       d="m 211.08482,91.454555 9.7e-4,1.630633 -1.63474,0.01145 0.007,0.807899 1.6392,0.0091 -0.006,1.634319 0.8077,-0.005 0.007,-1.631624 1.63951,-2.7e-5 v -0.814687 h -1.64611 l 0.0204,-1.642079 z"
       style="fill:#ffffff;fill-opacity:1;stroke:none" />
  </g>
  <g
     id="group-expander-top"
     transform="matrix(1.2222222,0,0,1.2222222,-72.992553,-80.777787)">
    <path
       id="path4950"
       d="m 211.5,88.999998 a 4.4999981,4.5000003 0 0 0 -4.5,4.5 4.4999981,4.5000003 0 0 0 4.5,4.500001 4.4999981,4.5000003 0 0 0 4.50001,-4.500001 4.4999981,4.5000003 0 0 0 -4.50001,-4.5 z"
       style="fill:#2ecc71;fill-opacity:1;stroke:none;stroke-width:1"
       inkscape:connector-curvature="0" />
    <path
       id="path4954"
       d="m 211.08482,91.454555 9.7e-4,1.630633 -1.63474,0.01145 0.007,0.807899 1.6392,0.0091 -0.006,1.634319 0.8077,-0.005 0.007,-1.631624 1.63951,-2.7e-5 v -0.814687 h -1.64611 l 0.0204,-1.642079 z"
       style="fill:#ffffff;fill-opacity:1;stroke:none" />
  </g>
  <g
     transform="matrix(1.2222222,0,0,1.2222222,-50.992553,-80.777787)"
     id="group-expander-right">
    <path
       style="fill:#2ecc71;fill-opacity:1;stroke:none;stroke-width:1"
       d="m 211.5,88.999998 a 4.4999981,4.5000003 0 0 0 -4.5,4.5 4.4999981,4.5000003 0 0 0 4.5,4.500001 4.4999981,4.5000003 0 0 0 4.50001,-4.500001 4.4999981,4.5000003 0 0 0 -4.50001,-4.5 z"
       id="path4962"
       inkscape:connector-curvature="0" />
    <path
       style="fill:#ffffff;fill-opacity:1;stroke:none"
       d="m 211.08482,91.454555 9.7e-4,1.630633 -1.63474,0.01145 0.007,0.807899 1.6392,0.0091 -0.006,1.634319 0.8077,-0.005 0.007,-1.631624 1.63951,-2.7e-5 v -0.814687 h -1.64611 l 0.0204,-1.642079 z"
       id="path4966" />
  </g>
  <rect
     id="normal-hint-top-margin"
     x="88.000015"
     y="-58"
     width="4"
     height="0.1"
     fill="#ff00ff"
     style="stroke-width:0.158114" />
  <rect
     id="normal-hint-bottom-margin"
     x="74"
     y="-50"
     width="0.1"
     height="4"
     fill="#ff00ff"
     style="stroke-width:0.158114" />
  <rect
     id="normal-hint-right-margin"
     x="102.00001"
     y="-50"
     width="0.1"
     height="4"
     fill="#ff00ff"
     style="stroke-width:0.158114" />
  <rect
     id="normal-hint-left-margin"
     x="88.000015"
     y="-43"
     width="4"
     height="0.1"
     fill="#ff00ff"
     style="stroke-width:0.158114" />
  <rect
     y="10"
     x="-20"
     height="10"
     width="10"
     id="hint-stretch-borders"
     style="display:inline;opacity:0.875;fill:#e4720c;fill-opacity:1;stroke:none" />
  <g
     id="focus-center"
     transform="matrix(1,0,0,0.66666667,297,16.666681)">
    <rect
       id="rect6"
       width="64"
       height="48"
       x="-297"
       y="98"
       style="fill:none" />
    <rect
       id="rect1123-5"
       width="62"
       height="48"
       x="-296"
       y="98"
       class="ColorScheme-Text"
       fill="currentColor"
       style="opacity:0.01;stroke-width:1.09193" />
  </g>
  <g
     id="focus-top"
     transform="translate(297,-15.999985)">
    <rect
       id="rect2-6"
       width="63.999954"
       height="12"
       x="-296.99997"
       y="86"
       style="opacity:0;fill:#ffffff;stroke-width:2.06559" />
    <path
       id="rect1133-2"
       class="ColorScheme-Text"
       d="m -287,89 c -4.986,0 -9,4.014 -9,9 h 62 c 0,-4.986 -4.014,-9 -9,-9 z"
       fill="currentColor"
       style="opacity:0.01"
       sodipodi:nodetypes="sccss" />
  </g>
  <g
     id="focus-bottom"
     transform="translate(297,-31.999985)">
    <rect
       id="rect4-0"
       width="63.999954"
       height="12"
       x="233.00005"
       y="-157.99998"
       style="fill:none;stroke-width:2.06559"
       transform="scale(-1)" />
    <path
       id="rect1151-9"
       class="ColorScheme-Text"
       d="m -296,146 c 0,4.986 4.014,9 9,9 h 44 c 4.986,0 9,-4.014 9,-9 z"
       fill="currentColor"
       style="opacity:0.01"
       sodipodi:nodetypes="csscc" />
    <rect id="pill-focus-bottom" width="14" height="4" x="-272" y="149" rx="2" ry="2" fill="#5197FF" style="opacity:1"/>
  </g>
  <g
     id="hover-center"
     transform="matrix(1,0,0,0.66666668,296.99997,-53.333316)">
    <rect
       id="rect6-4"
       width="64"
       height="48"
       x="-297"
       y="98"
       style="fill:none" />
    <rect
       id="rect1123-5-95"
       width="62"
       height="48"
       x="-296"
       y="98"
       fill="#002459"
       style="opacity:1;stroke-width:1.09193" />
  </g>
  <g
     id="hover-top"
     transform="translate(296.99997,-86)">
    <rect
       id="rect2-6-0"
       width="63.999954"
       height="12"
       x="-296.99997"
       y="86"
       style="opacity:0;fill:#ffffff;stroke-width:2.06559" />
    <path
       id="rect1133-2-4"
       d="m -287,89 c -4.986,0 -9,4.014 -9,9 h 62 c 0,-4.986 -4.014,-9 -9,-9 z"
       fill="#002459"
       style="opacity:1"
       sodipodi:nodetypes="sccss" />
  </g>
  <g
     id="hover-bottom"
     transform="translate(296.99997,-101.99999)">
    <rect
       id="rect4-0-8"
       width="63.999954"
       height="12"
       x="233.00005"
       y="-157.99998"
       style="fill:none;stroke-width:2.06559"
       transform="scale(-1)" />
    <path
       id="rect1151-9-7"
       d="m -296,146 c 0,4.986 4.014,9 9,9 h 44 c 4.986,0 9,-4.014 9,-9 z"
       fill="#002459"
       style="opacity:1"
       sodipodi:nodetypes="csscc" />
    <rect id="pill-hover-bottom" width="14" height="4" x="-272" y="149" rx="2" ry="2" fill="#5197FF" style="opacity:1"/>
  </g>
  <g
     id="normal-center"
     transform="matrix(1,0,0,0.66666668,296.99997,-125.33335)">
    <rect
       id="rect6-7"
       width="64"
       height="48"
       x="-297"
       y="98"
       style="fill:none" />
    <rect
       id="rect1123-5-2"
       width="62"
       height="48"
       x="-296"
       y="98"
       class="ColorScheme-Text"
       fill="currentColor"
       style="opacity:0.01;stroke-width:1.09193" />
  </g>
  <g
     id="normal-top"
     transform="translate(296.99997,-158.00003)">
    <rect
       id="rect2-6-7"
       width="63.999954"
       height="12"
       x="-296.99997"
       y="86"
       style="opacity:0;fill:#ffffff;stroke-width:2.06559" />
    <path
       id="rect1133-2-2"
       class="ColorScheme-Text"
       d="m -287,89 c -4.986,0 -9,4.014 -9,9 h 62 c 0,-4.986 -4.014,-9 -9,-9 z"
       fill="currentColor"
       style="opacity:0.01"
       sodipodi:nodetypes="sccss" />
  </g>
  <g
     id="normal-bottom"
     transform="translate(296.99997,-174.00002)">
    <rect
       id="rect4-0-2"
       width="63.999954"
       height="12"
       x="233.00005"
       y="-157.99998"
       style="fill:none;stroke-width:2.06559"
       transform="scale(-1)" />
    <path
       id="rect1151-9-6"
       class="ColorScheme-Text"
       d="m -296,146 c 0,4.986 4.014,9 9,9 h 44 c 4.986,0 9,-4.014 9,-9 z"
       fill="currentColor"
       style="opacity:0.01"
       sodipodi:nodetypes="csscc" />
    <rect id="pill-normal-bottom" width="14" height="4" x="-272" y="149" rx="2" ry="2" fill="#C0D9FF" style="opacity:0.9"/>
  </g>
  <g
     id="minimized-center"
     transform="matrix(1,0,0,0.66666668,296.99997,-195.33333)">
    <rect
       id="rect6-6"
       width="64"
       height="48"
       x="-297"
       y="98"
       style="fill:none" />
    <rect
       id="rect1123-5-1"
       width="62"
       height="48"
       x="-296"
       y="98"
       class="ColorScheme-Text"
       fill="currentColor"
       style="opacity:0.01;stroke-width:1.09193" />
  </g>
  <g
     id="minimized-top"
     transform="translate(296.99997,-228.00001)">
    <rect
       id="rect2-6-5"
       width="63.999954"
       height="12"
       x="-296.99997"
       y="86"
       style="opacity:0;fill:#ffffff;stroke-width:2.06559" />
    <path
       id="rect1133-2-9"
       class="ColorScheme-Text"
       d="m -287,89 c -4.986,0 -9,4.014 -9,9 h 62 c 0,-4.986 -4.014,-9 -9,-9 z"
       fill="currentColor"
       style="opacity:0.01"
       sodipodi:nodetypes="sccss" />
  </g>
  <g
     id="minimized-bottom"
     transform="translate(296.99997,-244)">
    <rect
       id="rect4-0-4"
       width="63.999954"
       height="12"
       x="233.00005"
       y="-157.99998"
       style="fill:none;stroke-width:2.06559"
       transform="scale(-1)" />
    <path
       id="rect1151-9-9"
       class="ColorScheme-Text"
       d="m -296,146 c 0,4.986 4.014,9 9,9 h 44 c 4.986,0 9,-4.014 9,-9 z"
       fill="currentColor"
       style="opacity:0.01"
       sodipodi:nodetypes="csscc" />
    <rect id="pill-minimized-bottom" width="14" height="4" x="-272" y="149" rx="2" ry="2" fill="#C0D9FF" style="opacity:0.9"/>
  </g>
  <g
     id="progress-center"
     transform="matrix(1,0,0,0.66666668,377.00002,-53.333316)">
    <rect
       id="rect1"
       width="64"
       height="48"
       x="-297"
       y="98"
       style="fill:none" />
    <rect
       id="rect2"
       width="62"
       height="48"
       x="-296"
       y="98"
       class="ColorScheme-PositiveText"
       fill="currentColor"
       style="opacity:0.05" />
  </g>
  <g
     id="progress-top"
     transform="translate(377.00002,-86)">
    <rect
       id="rect3"
       width="63.999954"
       height="12"
       x="-296.99997"
       y="86"
       style="opacity:0;fill:#ffffff;stroke-width:2.06559" />
    <path
       id="path3"
       class="ColorScheme-PositiveText"
       d="m -287,89 c -4.986,0 -9,4.014 -9,9 h 62 c 0,-4.986 -4.014,-9 -9,-9 z"
       fill="currentColor"
       style="opacity:0.05" />
  </g>
  <g
     id="progress-bottom"
     transform="translate(377.00002,-101.99999)">
    <rect
       id="rect4"
       width="63.999954"
       height="12"
       x="233.00005"
       y="-157.99998"
       style="fill:none;stroke-width:2.06559"
       transform="scale(-1)" />
    <path
       id="path4"
       class="ColorScheme-PositiveText"
       d="m -296,146 c 0,4.986 4.014,9 9,9 h 44 c 4.986,0 9,-4.014 9,-9 z"
       fill="currentColor"
       style="opacity:0.05" />
    <rect
       id="rect5"
       width="48"
       height="4"
       x="-289"
       y="149"
       class="ColorScheme-PositiveText"
       fill="currentColor"
       rx="2"
       ry="2"
       style="stroke-width:3.4641" />
  </g>
  <g
     id="attention-center"
     transform="matrix(1,0,0,0.66666668,377.00002,16.666688)">
    <rect
       id="rect8"
       width="64"
       height="48"
       x="-297"
       y="98"
       style="fill:none" />
    <rect
       id="rect9"
       width="62"
       height="48"
       x="-296"
       y="98"
       class="ColorScheme-NeutralText"
       fill="currentColor"
       style="opacity:0.05" />
  </g>
  <g
     id="attention-top"
     transform="translate(377.00002,-15.999997)">
    <rect
       id="rect10"
       width="63.999954"
       height="12"
       x="-296.99997"
       y="86"
       style="opacity:0;fill:#ffffff;stroke-width:2.06559" />
    <path
       id="path10"
       class="ColorScheme-NeutralText"
       d="m -287,89 c -4.986,0 -9,4.014 -9,9 h 62 c 0,-4.986 -4.014,-9 -9,-9 z"
       fill="currentColor"
       style="opacity:0.05" />
  </g>
  <g
     id="attention-bottom"
     transform="translate(377.00002,-31.999985)">
    <rect
       id="rect11"
       width="63.999954"
       height="12"
       x="233.00005"
       y="-157.99998"
       style="fill:none;stroke-width:2.06559"
       transform="scale(-1)" />
    <path
       id="path11"
       class="ColorScheme-NeutralText"
       d="m -296,146 c 0,4.986 4.014,9 9,9 h 44 c 4.986,0 9,-4.014 9,-9 z"
       fill="currentColor"
       style="opacity:0.05" />
    <rect
       id="rect12"
       width="48"
       height="4"
       x="-289"
       y="149"
       class="ColorScheme-NeutralText"
       fill="currentColor"
       rx="2"
       ry="2"
       style="stroke-width:3.4641" />
  </g>
</svg>
