<svg width="512" height="512" viewBox="0 0 512 512" fill="none" xmlns="http://www.w3.org/2000/svg">
    
    <g id="active-center"><rect width="512" height="512" fill="transparent" opacity="0"/><rect x="153" y="336.848" width="260" height="30" transform="rotate(-45 153 336.848)" fill="#4A4A4A"/>
<rect width="260" height="30" transform="matrix(-0.707107 -0.707107 -0.707107 0.707107 358.061 336.848)" fill="#4A4A4A"/></g>
    <g id="hover-center"><rect width="512" height="512" rx="100" fill="#FF3B30"/>
<rect x="153" y="336.848" width="260" height="30" transform="rotate(-45 153 336.848)" fill="white"/>
<rect width="260" height="30" transform="matrix(-0.707107 -0.707107 -0.707107 0.707107 358.061 336.848)" fill="white"/></g>
    <g id="pressed-center" opacity="0.8"><rect width="512" height="512" rx="100" fill="#FF3B30"/>
<rect x="153" y="336.848" width="260" height="30" transform="rotate(-45 153 336.848)" fill="white"/>
<rect width="260" height="30" transform="matrix(-0.707107 -0.707107 -0.707107 0.707107 358.061 336.848)" fill="white"/></g>
    <g id="inactive-center" opacity="0.5"><rect width="512" height="512" fill="transparent" opacity="0"/><rect x="153" y="336.848" width="260" height="30" transform="rotate(-45 153 336.848)" fill="#4A4A4A"/>
<rect width="260" height="30" transform="matrix(-0.707107 -0.707107 -0.707107 0.707107 358.061 336.848)" fill="#4A4A4A"/></g>
    
    </svg>