<?xml version="1.0" encoding="UTF-8" standalone="no"?>
<svg xmlns="http://www.w3.org/2000/svg" width="24" height="24" viewBox="0 0 24 24">
  <g id="active-center" transform="translate(4,4)">
    <g transform="translate(8,8)" opacity="0.85">
      
      <g fill="none" stroke="#000000" stroke-width="1.1" stroke-linecap="round"><path d="M 0 -4 L 0 4 M -3 1 L 0 4 L 3 1"/></g>
    </g>
  </g>
  <g id="hover-center" transform="translate(32,4)">
    <g transform="translate(8,8)" opacity="1.0">
      <rect x="-7" y="-7" width="14" height="14" rx="4" ry="4" fill="rgba(0,0,0,0.08)"/>
      <g fill="none" stroke="#000000" stroke-width="1.1" stroke-linecap="round"><path d="M 0 -4 L 0 4 M -3 1 L 0 4 L 3 1"/></g>
    </g>
  </g>
  <g id="pressed-center" transform="translate(60,4)">
    <g transform="translate(8,8)" opacity="1.0">
      <rect x="-7" y="-7" width="14" height="14" rx="4" ry="4" fill="rgba(0,0,0,0.16)"/>
      <g fill="none" stroke="#000000" stroke-width="1.1" stroke-linecap="round"><path d="M 0 -4 L 0 4 M -3 1 L 0 4 L 3 1"/></g>
    </g>
  </g>
  <g id="inactive-center" transform="translate(88,4)">
    <g transform="translate(8,8)" opacity="0.5">
      
      <g fill="none" stroke="#000000" stroke-width="1.1" stroke-linecap="round"><path d="M 0 -4 L 0 4 M -3 1 L 0 4 L 3 1"/></g>
    </g>
  </g>
  <g id="hover-inactive-center" transform="translate(116,4)">
    <g transform="translate(8,8)" opacity="0.85">
      <rect x="-7" y="-7" width="14" height="14" rx="4" ry="4" fill="rgba(0,0,0,0.08)"/>
      <g fill="none" stroke="#000000" stroke-width="1.1" stroke-linecap="round"><path d="M 0 -4 L 0 4 M -3 1 L 0 4 L 3 1"/></g>
    </g>
  </g>
  <g id="deactivated-center" transform="translate(144,4)">
    <g transform="translate(8,8)" opacity="0.3">
      
      <g fill="none" stroke="#000000" stroke-width="1.1" stroke-linecap="round"><path d="M 0 -4 L 0 4 M -3 1 L 0 4 L 3 1"/></g>
    </g>
  </g>
  <g id="deactivated-inactive-center" transform="translate(172,4)">
    <g transform="translate(8,8)" opacity="0.2">
      
      <g fill="none" stroke="#000000" stroke-width="1.1" stroke-linecap="round"><path d="M 0 -4 L 0 4 M -3 1 L 0 4 L 3 1"/></g>
    </g>
  </g>
</svg>
