<svg width="512" height="512" viewBox="0 0 512 512" fill="none" xmlns="http://www.w3.org/2000/svg">
    
    <g id="active-center"><rect width="512" height="512" fill="transparent" opacity="0"/><rect x="116" y="114" width="260" height="30" fill="#5F6368"/>
<rect x="116" y="368" width="279" height="30" fill="#5F6368"/>
<rect x="116" y="374" width="260" height="30" transform="rotate(-90 116 374)" fill="#5F6368"/>
<rect x="365" y="374" width="260" height="30" transform="rotate(-90 365 374)" fill="#5F6368"/></g>
    <g id="hover-center"><rect width="512" height="512" rx="100" fill="#D3D3D3"/>
<rect x="116" y="114" width="260" height="30" fill="#5F6368"/>
<rect x="116" y="368" width="279" height="30" fill="#5F6368"/>
<rect x="116" y="374" width="260" height="30" transform="rotate(-90 116 374)" fill="#5F6368"/>
<rect x="365" y="374" width="260" height="30" transform="rotate(-90 365 374)" fill="#5F6368"/></g>
    <g id="pressed-center" opacity="0.8"><rect width="512" height="512" rx="100" fill="#D3D3D3"/>
<rect x="116" y="114" width="260" height="30" fill="#5F6368"/>
<rect x="116" y="368" width="279" height="30" fill="#5F6368"/>
<rect x="116" y="374" width="260" height="30" transform="rotate(-90 116 374)" fill="#5F6368"/>
<rect x="365" y="374" width="260" height="30" transform="rotate(-90 365 374)" fill="#5F6368"/></g>
    <g id="inactive-center" opacity="0.5"><rect width="512" height="512" fill="transparent" opacity="0"/><rect x="116" y="114" width="260" height="30" fill="#5F6368"/>
<rect x="116" y="368" width="279" height="30" fill="#5F6368"/>
<rect x="116" y="374" width="260" height="30" transform="rotate(-90 116 374)" fill="#5F6368"/>
<rect x="365" y="374" width="260" height="30" transform="rotate(-90 365 374)" fill="#5F6368"/></g>
    
    </svg>