<svg width="512" height="512" viewBox="0 0 512 512" fill="none" xmlns="http://www.w3.org/2000/svg">
    
    <g id="active-center"><rect width="512" height="512" fill="transparent" opacity="0"/><rect x="93" y="138" width="260" height="30" fill="#5F6368"/>
<rect x="108" y="90" width="295" height="30" fill="#5F6368"/>
<rect x="108" y="148" width="58" height="30" transform="rotate(-90 108 148)" fill="#5F6368"/>
<rect x="345" y="365" width="58" height="30" fill="#5F6368"/>
<rect x="388" y="395" width="305" height="30" transform="rotate(-90 388 395)" fill="#5F6368"/>
<rect x="93" y="392" width="279" height="30" fill="#5F6368"/>
<rect x="93" y="398" width="260" height="30" transform="rotate(-90 93 398)" fill="#5F6368"/>
<rect x="342" y="398" width="260" height="30" transform="rotate(-90 342 398)" fill="#5F6368"/></g>
    <g id="hover-center"><rect width="512" height="512" rx="100" fill="#D3D3D3"/>
<rect x="93" y="138" width="260" height="30" fill="#5F6368"/>
<rect x="108" y="90" width="295" height="30" fill="#5F6368"/>
<rect x="108" y="148" width="58" height="30" transform="rotate(-90 108 148)" fill="#5F6368"/>
<rect x="345" y="365" width="58" height="30" fill="#5F6368"/>
<rect x="388" y="395" width="305" height="30" transform="rotate(-90 388 395)" fill="#5F6368"/>
<rect x="93" y="392" width="279" height="30" fill="#5F6368"/>
<rect x="93" y="398" width="260" height="30" transform="rotate(-90 93 398)" fill="#5F6368"/>
<rect x="342" y="398" width="260" height="30" transform="rotate(-90 342 398)" fill="#5F6368"/></g>
    <g id="pressed-center" opacity="0.8"><rect width="512" height="512" rx="100" fill="#D3D3D3"/>
<rect x="93" y="138" width="260" height="30" fill="#5F6368"/>
<rect x="108" y="90" width="295" height="30" fill="#5F6368"/>
<rect x="108" y="148" width="58" height="30" transform="rotate(-90 108 148)" fill="#5F6368"/>
<rect x="345" y="365" width="58" height="30" fill="#5F6368"/>
<rect x="388" y="395" width="305" height="30" transform="rotate(-90 388 395)" fill="#5F6368"/>
<rect x="93" y="392" width="279" height="30" fill="#5F6368"/>
<rect x="93" y="398" width="260" height="30" transform="rotate(-90 93 398)" fill="#5F6368"/>
<rect x="342" y="398" width="260" height="30" transform="rotate(-90 342 398)" fill="#5F6368"/></g>
    <g id="inactive-center" opacity="0.5"><rect width="512" height="512" fill="transparent" opacity="0"/><rect x="93" y="138" width="260" height="30" fill="#5F6368"/>
<rect x="108" y="90" width="295" height="30" fill="#5F6368"/>
<rect x="108" y="148" width="58" height="30" transform="rotate(-90 108 148)" fill="#5F6368"/>
<rect x="345" y="365" width="58" height="30" fill="#5F6368"/>
<rect x="388" y="395" width="305" height="30" transform="rotate(-90 388 395)" fill="#5F6368"/>
<rect x="93" y="392" width="279" height="30" fill="#5F6368"/>
<rect x="93" y="398" width="260" height="30" transform="rotate(-90 93 398)" fill="#5F6368"/>
<rect x="342" y="398" width="260" height="30" transform="rotate(-90 342 398)" fill="#5F6368"/></g>
    
    </svg>