<?xml version="1.0" encoding="UTF-8" standalone="no"?>
<svg xmlns="http://www.w3.org/2000/svg" width="150" height="30" viewBox="0 0 150 30">
<g id="active-center"><g transform="translate(15,15)" stroke="#000000" stroke-width="1.2" stroke-linecap="round" fill="none" opacity="0.6"><rect x="-4" y="-2" width="6" height="6" rx="1" ry="1"/><rect x="-2" y="-4" width="6" height="6" rx="1" ry="1" fill="none"/></g></g>
<g id="hover-center"><rect x="34" y="4" width="22" height="22" rx="6" ry="6" fill="rgba(0,0,0,0.08)"/><g transform="translate(45,15)" stroke="#000000" stroke-width="1.2" stroke-linecap="round" fill="none" opacity="1.0"><rect x="-4" y="-2" width="6" height="6" rx="1" ry="1"/><rect x="-2" y="-4" width="6" height="6" rx="1" ry="1" fill="none"/></g></g>
<g id="pressed-center"><rect x="64" y="4" width="22" height="22" rx="6" ry="6" fill="rgba(0,0,0,0.16)"/><g transform="translate(75,15)" stroke="#000000" stroke-width="1.2" stroke-linecap="round" fill="none" opacity="1.0"><rect x="-4" y="-2" width="6" height="6" rx="1" ry="1"/><rect x="-2" y="-4" width="6" height="6" rx="1" ry="1" fill="none"/></g></g>
<g id="inactive-center"><g transform="translate(105,15)" stroke="#000000" stroke-width="1.2" stroke-linecap="round" fill="none" opacity="0.35"><g transform="scale(1)"><rect x="-4" y="-2" width="6" height="6" rx="1" ry="1"/><rect x="-2" y="-4" width="6" height="6" rx="1" ry="1" fill="none"/></g></g></g>
<g id="deactivated-center"><g transform="translate(135,15)" stroke="#000000" stroke-width="1.2" stroke-linecap="round" fill="none" opacity="0.18"><rect x="-4" y="-2" width="6" height="6" rx="1" ry="1"/><rect x="-2" y="-4" width="6" height="6" rx="1" ry="1" fill="none"/></g></g>
</svg>
