<svg width="144" height="126" version="1.0" viewBox="0 0 144 126" xmlns="http://www.w3.org/2000/svg">
 <defs id="null">
  <style id="current-color-scheme" type="text/css">.ColorScheme-Text{
        
      }
      .ColorScheme-Background{
        color:#000000;
      }
      .ColorScheme-ButtonFocus{
        color:#0a84ff;
      }
      .ColorScheme-ViewText{
        
      }
      .ColorScheme-ViewBackground{
        color:#000000;
      }
      .ColorScheme-ViewHover{
        color:#47a1ff;
      }
      .ColorScheme-ViewFocus{
        color:#0a84ff;
      }
      .ColorScheme-ButtonText{
        
      }
      .ColorScheme-ButtonBackground{
        color:#1c1c1e;
      }
      .ColorScheme-ButtonHover{
        color:#47a1ff;
      }
      .ColorScheme-ButtonFocus{
        color:#0a84ff;
      }
      .ColorScheme-Text{
        
      }
      .ColorScheme-NeutralText {
        color:#ffcc00;
      }
      .ColorScheme-PositiveText {
        color:#34c759;
      }</style>
 </defs>
 <g id="focus-left" transform="matrix(-1,0,0,-1,36,50)">
  <rect x="0" y="0" width="0" height="0" fill="none"/>
</g>
 <g id="focus-right" transform="translate(0,13)">
  <rect x="0" y="0" width="0" height="0" fill="none"/>
</g>
 <g id="focus-center" transform="matrix(.96296 0 0 1 .18518 20.9)">
  <rect x="3" y="3" width="31" height="15" fill="#002459" rx="4"/>
  <rect x="5" y="5" width="27" height="11" fill="#5197FF" rx="3"/>
</g>
 <g id="focus-top" transform="matrix(1,0,0,-1,0,51)">
  <rect x="0" y="0" width="0" height="0" fill="none"/>
</g>
 <g id="focus-topleft" transform="matrix(0,-1,-1,0,23,56)">
  <rect x="0" y="0" width="0" height="0" fill="none"/>
</g>
 <g id="focus-topright" transform="matrix(1,0,0,-1,0,43)">
  <rect x="0" y="0" width="0" height="0" fill="none"/>
</g>
 <g id="focus-bottom" transform="matrix(-1,0,0,1,36,12)">
  <rect x="0" y="0" width="0" height="0" fill="none"/>
</g>
 <g id="focus-bottomleft" transform="matrix(-1,0,0,1,36,20)">
  <rect x="0" y="0" width="0" height="0" fill="none"/>
</g>
 <g id="focus-bottomright" transform="matrix(0,1,1,0,13,7)">
  <rect x="0" y="0" width="0" height="0" fill="none"/>
</g>
 <g id="hover-left" transform="matrix(-1,0,0,-1,36,92)">
  <rect x="0" y="0" width="0" height="0" fill="none"/>
</g>
 <g id="hover-right" transform="translate(0,55)">
  <rect x="0" y="0" width="0" height="0" fill="none"/>
</g>
 <g id="hover-center" transform="matrix(.96296 0 0 1 .18518 62.9)">
  <rect x="3" y="3" width="31" height="15" fill="#001a40" rx="4"/>
  <rect x="5" y="5" width="27" height="11" fill="#6BA8FF" rx="3"/>
</g>
 <g id="hover-top" transform="matrix(1,0,0,-1,0,93)">
  <rect x="0" y="0" width="0" height="0" fill="none"/>
</g>
 <g id="hover-topleft" transform="matrix(0,-1,-1,0,23,98)">
  <rect x="0" y="0" width="0" height="0" fill="none"/>
</g>
 <g id="hover-topright" transform="matrix(1,0,0,-1,0,85)">
  <rect x="0" y="0" width="0" height="0" fill="none"/>
</g>
 <g id="hover-bottom" transform="matrix(-1,0,0,1,36,54)">
  <rect x="0" y="0" width="0" height="0" fill="none"/>
</g>
 <g id="hover-bottomleft" transform="matrix(-1,0,0,1,36,62)">
  <rect x="0" y="0" width="0" height="0" fill="none"/>
</g>
 <g id="hover-bottomright" transform="matrix(0,1,1,0,13,49)">
  <rect x="0" y="0" width="0" height="0" fill="none"/>
</g>
 <g id="attention-left" transform="matrix(-1,0,0,-1,36,113)">
  <rect x="0" y="0" width="0" height="0" fill="none"/>
</g>
 <g id="attention-right" transform="translate(0,76)">
  <rect x="0" y="0" width="0" height="0" fill="none"/>
</g>
 <g id="attention-center" transform="matrix(.96296 0 0 1 .18518 83.9)">
  <rect x="3" y="3" width="31" height="15" fill="#FFD60A" opacity="0.85" rx="4"/>
</g>
 <g id="attention-top" transform="matrix(1,0,0,-1,0,114)">
  <rect x="0" y="0" width="0" height="0" fill="none"/>
</g>
 <g id="attention-topleft" transform="matrix(0,-1,-1,0,23,119)">
  <rect x="0" y="0" width="0" height="0" fill="none"/>
</g>
 <g id="attention-topright" transform="matrix(1,0,0,-1,0,106)">
  <rect x="0" y="0" width="0" height="0" fill="none"/>
</g>
 <g id="attention-bottom" transform="matrix(-1,0,0,1,36,75)">
  <rect x="0" y="0" width="0" height="0" fill="none"/>
</g>
 <g id="attention-bottomleft" transform="matrix(-1,0,0,1,36,83)">
  <rect x="0" y="0" width="0" height="0" fill="none"/>
</g>
 <g id="attention-bottomright" transform="matrix(0,1,1,0,13,70)">
  <rect x="0" y="0" width="0" height="0" fill="none"/>
</g>
 <g id="north-focus-left" transform="matrix(-1,0,0,1,72,13)">
  <rect x="0" y="0" width="0" height="0" fill="none"/>
</g>
 <g id="north-focus-right" transform="matrix(1,0,0,-1,36,50)">
  <rect x="0" y="0" width="0" height="0" fill="none"/>
</g>
 <g id="north-focus-center" transform="matrix(.96296 0 0 -1 36.185 42.1)">
  <rect x="3" y="3" width="31" height="15" fill="#002459" rx="4"/>
  <rect x="5" y="5" width="27" height="11" fill="#5197FF" rx="3"/>
</g>
 <g id="north-focus-bottom" transform="translate(36,12)">
  <rect x="0" y="0" width="0" height="0" fill="none"/>
</g>
 <g id="north-focus-bottomleft" transform="matrix(0,1,-1,0,59,7)">
  <rect x="0" y="0" width="0" height="0" fill="none"/>
</g>
 <g id="north-focus-bottomright" transform="translate(36,20)">
  <rect x="0" y="0" width="0" height="0" fill="none"/>
</g>
 <g id="north-focus-top" transform="matrix(-1,0,0,-1,72,51)">
  <rect x="0" y="0" width="0" height="0" fill="none"/>
</g>
 <g id="north-focus-topleft" transform="matrix(-1,0,0,-1,72,43)">
  <rect x="0" y="0" width="0" height="0" fill="none"/>
</g>
 <g id="north-focus-topright" transform="matrix(0,-1,1,0,49,56)">
  <rect x="0" y="0" width="0" height="0" fill="none"/>
</g>
 <g id="north-hover-left" transform="matrix(-1,0,0,1,72,55)">
  <rect x="0" y="0" width="0" height="0" fill="none"/>
</g>
 <g id="north-hover-right" transform="matrix(1,0,0,-1,36,92)">
  <rect x="0" y="0" width="0" height="0" fill="none"/>
</g>
 <g id="north-hover-center" transform="matrix(.96296 0 0 -1 36.185 84.1)">
  <rect x="3" y="3" width="31" height="15" fill="#001a40" rx="4"/>
  <rect x="5" y="5" width="27" height="11" fill="#6BA8FF" rx="3"/>
</g>
 <g id="north-hover-bottom" transform="translate(36,54)">
  <rect x="0" y="0" width="0" height="0" fill="none"/>
</g>
 <g id="north-hover-bottomleft" transform="matrix(0,1,-1,0,59,49)">
  <rect x="0" y="0" width="0" height="0" fill="none"/>
</g>
 <g id="north-hover-bottomright" transform="translate(36,62)">
  <rect x="0" y="0" width="0" height="0" fill="none"/>
</g>
 <g id="north-hover-top" transform="matrix(-1,0,0,-1,72,93)">
  <rect x="0" y="0" width="0" height="0" fill="none"/>
</g>
 <g id="north-hover-topleft" transform="matrix(-1,0,0,-1,72,85)">
  <rect x="0" y="0" width="0" height="0" fill="none"/>
</g>
 <g id="north-hover-topright" transform="matrix(0,-1,1,0,49,98)">
  <rect x="0" y="0" width="0" height="0" fill="none"/>
</g>
 <g id="north-attention-left" transform="matrix(-1,0,0,1,72,76)">
  <rect x="0" y="0" width="0" height="0" fill="none"/>
</g>
 <g id="north-attention-right" transform="matrix(1,0,0,-1,36,113)">
  <rect x="0" y="0" width="0" height="0" fill="none"/>
</g>
 <g id="north-attention-center" transform="matrix(.96296 0 0 -1 36.185 105.1)">
  <rect x="3" y="3" width="31" height="15" fill="#FFD60A" opacity="0.85" rx="4"/>
</g>
 <g id="north-attention-bottom" transform="translate(36,75)">
  <rect x="0" y="0" width="0" height="0" fill="none"/>
</g>
 <g id="north-attention-bottomleft" transform="matrix(0,1,-1,0,59,70)">
  <rect x="0" y="0" width="0" height="0" fill="none"/>
</g>
 <g id="north-attention-bottomright" transform="translate(36,83)">
  <rect x="0" y="0" width="0" height="0" fill="none"/>
</g>
 <g id="north-attention-top" transform="matrix(-1,0,0,-1,72,114)">
  <rect x="0" y="0" width="0" height="0" fill="none"/>
</g>
 <g id="north-attention-topleft" transform="matrix(-1,0,0,-1,72,106)">
  <rect x="0" y="0" width="0" height="0" fill="none"/>
</g>
 <g id="north-attention-topright" transform="matrix(0,-1,1,0,49,119)">
  <rect x="0" y="0" width="0" height="0" fill="none"/>
</g>
 <g id="west-focus-left" transform="matrix(-1 0 0 .84615 107 15.846)">
  <rect x="0" y="0" width="0" height="0" fill="none"/>
</g>
 <g id="west-focus-right" transform="matrix(1 0 0 -.84615 73 47.154)">
  <rect x="0" y="0" width="0" height="0" fill="none"/>
</g>
 <g id="west-focus-center" transform="matrix(1.037 0 0 -.84615 70.815 40.469)">
  <rect x="3" y="3" width="31" height="15" fill="#002459" rx="4"/>
  <rect x="5" y="5" width="27" height="11" fill="#5197FF" rx="3"/>
</g>
 <g id="west-focus-bottom" transform="matrix(1.0769 0 0 1 70.615 11)">
  <rect x="0" y="0" width="0" height="0" fill="none"/>
</g>
 <g id="west-focus-topright" transform="matrix(0 -1 1 0 86 57)">
  <rect x="0" y="0" width="0" height="0" fill="none"/>
</g>
 <g id="west-focus-bottomright" transform="translate(73 19)">
  <rect x="0" y="0" width="0" height="0" fill="none"/>
</g>
 <g id="west-focus-top" transform="matrix(-1.0769 0 0 -1 109.38 52)">
  <rect x="0" y="0" width="0" height="0" fill="none"/>
</g>
 <g id="west-focus-topleft" transform="matrix(-1,0,0,-1,107,44)">
  <rect x="0" y="0" width="0" height="0" fill="none"/>
</g>
 <g id="west-focus-bottomleft" transform="matrix(0,1,-1,0,94,6)">
  <rect x="0" y="0" width="0" height="0" fill="none"/>
</g>
 <g id="west-hover-left" transform="matrix(-1 0 0 .84615 107 57.846)">
  <rect x="0" y="0" width="0" height="0" fill="none"/>
</g>
 <g id="west-hover-right" transform="matrix(1 0 0 -.84615 73 89.154)">
  <rect x="0" y="0" width="0" height="0" fill="none"/>
</g>
 <g id="west-hover-center" transform="matrix(1.037 0 0 -.84615 70.815 82.469)">
  <rect x="3" y="3" width="31" height="15" fill="#001a40" rx="4"/>
  <rect x="5" y="5" width="27" height="11" fill="#6BA8FF" rx="3"/>
</g>
 <g id="west-hover-bottom" transform="matrix(1.0769 0 0 1 70.615 53)">
  <rect x="0" y="0" width="0" height="0" fill="none"/>
</g>
 <g id="west-hover-topright" transform="matrix(0 -1 1 0 86 99)">
  <rect x="0" y="0" width="0" height="0" fill="none"/>
</g>
 <g id="west-hover-bottomright" transform="translate(73 61)">
  <rect x="0" y="0" width="0" height="0" fill="none"/>
</g>
 <g id="west-hover-top" transform="matrix(-1.0769 0 0 -1 109.38 94)">
  <rect x="0" y="0" width="0" height="0" fill="none"/>
</g>
 <g id="west-hover-topleft" transform="matrix(-1,0,0,-1,107,86)">
  <rect x="0" y="0" width="0" height="0" fill="none"/>
</g>
 <g id="west-hover-bottomleft" transform="matrix(0,1,-1,0,94,48)">
  <rect x="0" y="0" width="0" height="0" fill="none"/>
</g>
 <g id="west-attention-left" transform="matrix(-1 0 0 .84615 107 78.846)">
  <rect x="0" y="0" width="0" height="0" fill="none"/>
</g>
 <g id="west-attention-right" transform="matrix(1 0 0 -.84615 73 110.15)">
  <rect x="0" y="0" width="0" height="0" fill="none"/>
</g>
 <g id="west-attention-center" transform="matrix(1.037 0 0 -.84615 70.815 103.47)">
  <rect x="3" y="3" width="31" height="15" fill="#FFD60A" opacity="0.85" rx="4"/>
</g>
 <g id="west-attention-bottom" transform="matrix(1.0769 0 0 1 70.615 74)">
  <rect x="0" y="0" width="0" height="0" fill="none"/>
</g>
 <g id="west-attention-topright" transform="matrix(0 -1 1 0 86 120)">
  <rect x="0" y="0" width="0" height="0" fill="none"/>
</g>
 <g id="west-attention-bottomright" transform="translate(73 82)">
  <rect x="0" y="0" width="0" height="0" fill="none"/>
</g>
 <g id="west-attention-top" transform="matrix(-1.0769 0 0 -1 109.38 115)">
  <rect x="0" y="0" width="0" height="0" fill="none"/>
</g>
 <g id="west-attention-topleft" transform="matrix(-1,0,0,-1,107,107)">
  <rect x="0" y="0" width="0" height="0" fill="none"/>
</g>
 <g id="west-attention-bottomleft" transform="matrix(0 1 -1 0 94 69)">
  <rect x="0" y="0" width="0" height="0" fill="none"/>
</g>
 <g id="east-focus-right" transform="matrix(1 0 0 .84615 109 15.846)">
  <rect x="0" y="0" width="0" height="0" fill="none"/>
</g>
 <g id="east-focus-left" transform="matrix(-1 0 0 -.84615 143 47.154)">
  <rect x="0" y="0" width="0" height="0" fill="none"/>
</g>
 <g id="east-focus-center" transform="matrix(-1.037 0 0 -.84615 145.19 40.469)">
  <rect x="3" y="3" width="31" height="15" fill="#002459" rx="4"/>
  <rect x="5" y="5" width="27" height="11" fill="#5197FF" rx="3"/>
</g>
 <g id="east-focus-bottom" transform="matrix(-1.0769 0 0 1 145.38 11)">
  <rect x="0" y="0" width="0" height="0" fill="none"/>
</g>
 <g id="east-focus-topleft" transform="matrix(0,-1,-1,0,130,57)">
  <rect x="0" y="0" width="0" height="0" fill="none"/>
</g>
 <g id="east-focus-bottomleft" transform="matrix(-1,0,0,1,143,19)">
  <rect x="0" y="0" width="0" height="0" fill="none"/>
</g>
 <g id="east-focus-top" transform="matrix(1.0769 0 0 -1 106.62 52)">
  <rect x="0" y="0" width="0" height="0" fill="none"/>
</g>
 <g id="east-focus-topright" transform="matrix(1 0 0 -1 109 44)">
  <rect x="0" y="0" width="0" height="0" fill="none"/>
</g>
 <g id="east-focus-bottomright" transform="matrix(0 1 1 0 122 6)">
  <rect x="0" y="0" width="0" height="0" fill="none"/>
</g>
 <g id="east-hover-right" transform="matrix(1 0 0 .84615 109 57.846)">
  <rect x="0" y="0" width="0" height="0" fill="none"/>
</g>
 <g id="east-hover-left" transform="matrix(-1 0 0 -.84615 143 89.154)">
  <rect x="0" y="0" width="0" height="0" fill="none"/>
</g>
 <g id="east-hover-center" transform="matrix(-1.037 0 0 -.84615 145.19 82.469)">
  <rect x="3" y="3" width="31" height="15" fill="#001a40" rx="4"/>
  <rect x="5" y="5" width="27" height="11" fill="#6BA8FF" rx="3"/>
</g>
 <g id="east-hover-bottom" transform="matrix(-1.0769 0 0 1 145.38 53)">
  <rect x="0" y="0" width="0" height="0" fill="none"/>
</g>
 <g id="east-hover-topleft" transform="matrix(0,-1,-1,0,130,99)">
  <rect x="0" y="0" width="0" height="0" fill="none"/>
</g>
 <g id="east-hover-bottomleft" transform="matrix(-1,0,0,1,143,61)">
  <rect x="0" y="0" width="0" height="0" fill="none"/>
</g>
 <g id="east-hover-top" transform="matrix(1.0769 0 0 -1 106.62 94)">
  <rect x="0" y="0" width="0" height="0" fill="none"/>
</g>
 <g id="east-hover-topright" transform="matrix(1 0 0 -1 109 86)">
  <rect x="0" y="0" width="0" height="0" fill="none"/>
</g>
 <g id="east-hover-bottomright" transform="matrix(0 1 1 0 122 48)">
  <rect x="0" y="0" width="0" height="0" fill="none"/>
</g>
 <g id="east-attention-right" transform="matrix(1 0 0 .84615 109 78.846)">
  <rect x="0" y="0" width="0" height="0" fill="none"/>
</g>
 <g id="east-attention-left" transform="matrix(-1 0 0 -.84615 143 110.15)">
  <rect x="0" y="0" width="0" height="0" fill="none"/>
</g>
 <g id="east-attention-center" transform="matrix(-1.037 0 0 -.84615 145.19 103.47)">
  <rect x="3" y="3" width="31" height="15" fill="#FFD60A" opacity="0.85" rx="4"/>
</g>
 <g id="east-attention-bottom" transform="matrix(-1.0769 0 0 1 145.38 74)">
  <rect x="0" y="0" width="0" height="0" fill="none"/>
</g>
 <g id="east-attention-topleft" transform="matrix(0,-1,-1,0,130,120)">
  <rect x="0" y="0" width="0" height="0" fill="none"/>
</g>
 <g id="east-attention-bottomleft" transform="matrix(-1,0,0,1,143,82)">
  <rect x="0" y="0" width="0" height="0" fill="none"/>
</g>
 <g id="east-attention-top" transform="matrix(1.0769 0 0 -1 106.62 115)">
  <rect x="0" y="0" width="0" height="0" fill="none"/>
</g>
 <g id="east-attention-topright" transform="matrix(1 0 0 -1 109 107)">
  <rect x="0" y="0" width="0" height="0" fill="none"/>
</g>
 <g id="east-attention-bottomright" transform="matrix(0 1 1 0 122 69)">
  <rect x="0" y="0" width="0" height="0" fill="none"/>
</g>
 <g id="progress-left" transform="matrix(-1 0 0 -1 36 29)">
  <rect x="0" y="0" width="0" height="0" fill="none"/>
</g>
 <g id="progress-right" transform="translate(1e-7 -8)">
  <rect x="0" y="0" width="0" height="0" fill="none"/>
</g>
 <g id="progress-center" transform="matrix(.96296 0 0 1 .18519 -.1)">
  <rect x="3" y="3" width="31" height="15" fill="#5197FF" opacity="0.5" rx="4"/>
</g>
 <g id="progress-top" transform="matrix(1 0 0 -1 1e-7 30)">
  <rect x="0" y="0" width="0" height="0" fill="none"/>
</g>
 <g id="progress-topleft" transform="matrix(0,-1,-1,0,23,35)">
  <rect x="0" y="0" width="0" height="0" fill="none"/>
</g>
 <g id="progress-topright" transform="matrix(1 0 0 -1 1e-7 22)">
  <rect x="0" y="0" width="0" height="0" fill="none"/>
</g>
 <g id="progress-bottom" transform="matrix(-1 0 0 1 36 -9)" fill-opacity=".61176">
  <rect x="0" y="0" width="0" height="0" fill="none"/>
</g>
 <g id="progress-bottomleft" transform="matrix(-1,0,0,1,36,-1)">
  <rect x="0" y="0" width="0" height="0" fill="none"/>
</g>
 <g id="progress-bottomright" transform="matrix(0,1,1,0,13,-14)">
  <rect x="0" y="0" width="0" height="0" fill="none"/>
</g>
 <g id="north-progress-left" transform="matrix(-1 0 0 1 72 -8)">
  <rect x="0" y="0" width="0" height="0" fill="none"/>
</g>
 <g id="north-progress-right" transform="matrix(1 0 0 -1 36 29)">
  <rect x="0" y="0" width="0" height="0" fill="none"/>
</g>
 <g id="north-progress-center" transform="matrix(.96296 0 0 -1 36.185 21.1)">
  <rect x="3" y="3" width="31" height="15" fill="#5197FF" opacity="0.5" rx="4"/>
</g>
 <g id="north-progress-bottom" transform="translate(36 -9)">
  <rect x="0" y="0" width="0" height="0" fill="none"/>
</g>
 <g id="north-progress-bottomleft" transform="matrix(0,1,-1,0,59,-14)">
  <rect x="0" y="0" width="0" height="0" fill="none"/>
</g>
 <g id="north-progress-bottomright" transform="translate(36,-1)">
  <rect x="0" y="0" width="0" height="0" fill="none"/>
</g>
 <g id="north-progress-top" transform="matrix(-1 0 0 -1 72 30)" fill-opacity=".61176">
  <rect x="0" y="0" width="0" height="0" fill="none"/>
</g>
 <g id="north-progress-topleft" transform="matrix(-1 0 0 -1 72 22)">
  <rect x="0" y="0" width="0" height="0" fill="none"/>
</g>
 <g id="north-progress-topright" transform="matrix(0,-1,1,0,49,35)">
  <rect x="0" y="0" width="0" height="0" fill="none"/>
</g>
 <g id="west-progress-left" transform="matrix(-1 0 0 .84615 107 -5.1538)" fill-opacity=".61176">
  <rect x="0" y="0" width="0" height="0" fill="none"/>
</g>
 <g id="west-progress-right" transform="matrix(1 0 0 -.84615 73 26.154)">
  <rect x="0" y="0" width="0" height="0" fill="none"/>
</g>
 <g id="west-progress-center" transform="matrix(1.037 0 0 -.84615 70.815 19.469)">
  <rect x="3" y="3" width="31" height="15" fill="#5197FF" opacity="0.5" rx="4"/>
</g>
 <g id="west-progress-bottom" transform="matrix(1.0769 0 0 1 70.615 -10)">
  <rect x="0" y="0" width="0" height="0" fill="none"/>
</g>
 <g id="west-progress-topright" transform="matrix(0 -1 1 0 86 36)">
  <rect x="0" y="0" width="0" height="0" fill="none"/>
</g>
 <g id="west-progress-bottomright" transform="translate(73 -2)">
  <rect x="0" y="0" width="0" height="0" fill="none"/>
</g>
 <g id="west-progress-top" transform="matrix(-1.0769 0 0 -1 109.38 31)">
  <rect x="0" y="0" width="0" height="0" fill="none"/>
</g>
 <g id="west-progress-topleft" transform="matrix(-1 0 0 -1 107 23)">
  <rect x="0" y="0" width="0" height="0" fill="none"/>
</g>
 <g id="west-progress-bottomleft" transform="matrix(0,1,-1,0,94,-15)">
  <rect x="0" y="0" width="0" height="0" fill="none"/>
</g>
 <g id="east-progress-right" transform="matrix(1 0 0 .84615 109 -5.1538)" fill-opacity=".61176">
  <rect x="0" y="0" width="0" height="0" fill="none"/>
</g>
 <g id="east-progress-left" transform="matrix(-1 0 0 -.84615 143 26.154)">
  <rect x="0" y="0" width="0" height="0" fill="none"/>
</g>
 <g id="east-progress-center" transform="matrix(-1.037 0 0 -.84615 145.19 19.469)">
  <rect x="3" y="3" width="31" height="15" fill="#5197FF" opacity="0.5" rx="4"/>
</g>
 <g id="east-progress-bottom" transform="matrix(-1.0769 0 0 1 145.38 -10)">
  <rect x="0" y="0" width="0" height="0" fill="none"/>
</g>
 <g id="east-progress-topleft" transform="matrix(0 -1 -1 0 130 36)">
  <rect x="0" y="0" width="0" height="0" fill="none"/>
</g>
 <g id="east-progress-bottomleft" transform="matrix(-1 0 0 1 143 -2)">
  <rect x="0" y="0" width="0" height="0" fill="none"/>
</g>
 <g id="east-progress-top" transform="matrix(1.0769 0 0 -1 106.62 31)">
  <rect x="0" y="0" width="0" height="0" fill="none"/>
</g>
 <g id="east-progress-topright" transform="matrix(1 0 0 -1 109 23)">
  <rect x="0" y="0" width="0" height="0" fill="none"/>
</g>
 <g id="east-progress-bottomright" transform="matrix(0,1,1,0,122,-15)">
  <rect x="0" y="0" width="0" height="0" fill="none"/>
</g>
 <g id="minimized-left" transform="matrix(-1,0,0,-1,36,134)">
  <rect x="0" y="0" width="0" height="0" fill="none"/>
</g>
 <g id="minimized-right" transform="translate(0,97)">
  <rect x="0" y="0" width="0" height="0" fill="none"/>
</g>
 <g id="minimized-center" transform="matrix(.96296 0 0 1 .18518 104.9)">
  <rect x="3" y="3" width="31" height="15" fill="#C0D9FF" opacity="0.55" rx="4"/>
</g>
 <g id="minimized-top" transform="matrix(1,0,0,-1,0,135)" fill-opacity=".16">
  <rect x="0" y="0" width="0" height="0" fill="none"/>
</g>
 <g id="minimized-topleft" transform="matrix(0,-1,-1,0,23,140)">
  <rect x="0" y="0" width="0" height="0" fill="none"/>
</g>
 <g id="minimized-topright" transform="matrix(1,0,0,-1,0,127)">
  <rect x="0" y="0" width="0" height="0" fill="none"/>
</g>
 <g id="minimized-bottom" transform="matrix(-1,0,0,1,36,96)">
  <rect x="0" y="0" width="0" height="0" fill="none"/>
</g>
 <g id="minimized-bottomleft" transform="matrix(-1,0,0,1,36,104)">
  <rect x="0" y="0" width="0" height="0" fill="none"/>
</g>
 <g id="minimized-bottomright" transform="matrix(0,1,1,0,13,91)">
  <rect x="0" y="0" width="0" height="0" fill="none"/>
</g>
 <g id="north-minimized-left" transform="matrix(-1,0,0,1,72,97)">
  <rect x="0" y="0" width="0" height="0" fill="none"/>
</g>
 <g id="north-minimized-right" transform="matrix(1,0,0,-1,36,134)">
  <rect x="0" y="0" width="0" height="0" fill="none"/>
</g>
 <g id="north-minimized-center" transform="matrix(.96296 0 0 -1 36.185 126.1)">
  <rect x="3" y="3" width="31" height="15" fill="#C0D9FF" opacity="0.55" rx="4"/>
</g>
 <g id="north-minimized-bottom" transform="translate(36,96)" fill-opacity=".16">
  <rect x="0" y="0" width="0" height="0" fill="none"/>
</g>
 <g id="north-minimized-bottomleft" transform="matrix(0,1,-1,0,59,91)">
  <rect x="0" y="0" width="0" height="0" fill="none"/>
</g>
 <g id="north-minimized-bottomright" transform="translate(36,104)">
  <rect x="0" y="0" width="0" height="0" fill="none"/>
</g>
 <g id="north-minimized-top" transform="matrix(-1,0,0,-1,72,135)">
  <rect x="0" y="0" width="0" height="0" fill="none"/>
</g>
 <g id="north-minimized-topleft" transform="matrix(-1,0,0,-1,72,127)">
  <rect x="0" y="0" width="0" height="0" fill="none"/>
</g>
 <g id="north-minimized-topright" transform="matrix(0,-1,1,0,49,140)">
  <rect x="0" y="0" width="0" height="0" fill="none"/>
</g>
 <g id="west-minimized-left" transform="matrix(-1 0 0 .84615 107 99.846)">
  <rect x="0" y="0" width="0" height="0" fill="none"/>
</g>
 <g id="west-minimized-right" transform="matrix(1 0 0 -.84615 73 131.15)" fill-opacity=".16">
  <rect x="0" y="0" width="0" height="0" fill="none"/>
</g>
 <g id="west-minimized-center" transform="matrix(1.037 0 0 -.84615 70.815 124.47)">
  <rect x="3" y="3" width="31" height="15" fill="#C0D9FF" opacity="0.55" rx="4"/>
</g>
 <g id="west-minimized-bottom" transform="matrix(1.0769 0 0 1 70.615 95)">
  <rect x="0" y="0" width="0" height="0" fill="none"/>
</g>
 <g id="west-minimized-topright" transform="matrix(0 -1 1 0 86 141)">
  <rect x="0" y="0" width="0" height="0" fill="none"/>
</g>
 <g id="west-minimized-bottomright" transform="translate(73 103)">
  <rect x="0" y="0" width="0" height="0" fill="none"/>
</g>
 <g id="west-minimized-top" transform="matrix(-1.0769 0 0 -1 109.38 136)">
  <rect x="0" y="0" width="0" height="0" fill="none"/>
</g>
 <g id="west-minimized-topleft" transform="matrix(-1,0,0,-1,107,128)">
  <rect x="0" y="0" width="0" height="0" fill="none"/>
</g>
 <g id="west-minimized-bottomleft" transform="matrix(0 1 -1 0 94 90)">
  <rect x="0" y="0" width="0" height="0" fill="none"/>
</g>
 <g id="east-minimized-right" transform="matrix(1 0 0 .84615 109 99.846)">
  <rect x="0" y="0" width="0" height="0" fill="none"/>
</g>
 <g id="east-minimized-left" transform="matrix(-1 0 0 -.84615 143 131.15)" fill-opacity=".16">
  <rect x="0" y="0" width="0" height="0" fill="none"/>
</g>
 <g id="east-minimized-center" transform="matrix(-1.037 0 0 -.84615 145.19 124.47)">
  <rect x="3" y="3" width="31" height="15" fill="#C0D9FF" opacity="0.55" rx="4"/>
</g>
 <g id="east-minimized-bottom" transform="matrix(-1.0769 0 0 1 145.38 95)">
  <rect x="0" y="0" width="0" height="0" fill="none"/>
</g>
 <g id="east-minimized-topleft" transform="matrix(0,-1,-1,0,130,141)">
  <rect x="0" y="0" width="0" height="0" fill="none"/>
</g>
 <g id="east-minimized-bottomleft" transform="matrix(-1,0,0,1,143,103)">
  <rect x="0" y="0" width="0" height="0" fill="none"/>
</g>
 <g id="east-minimized-top" transform="matrix(1.0769 0 0 -1 106.62 136)">
  <rect x="0" y="0" width="0" height="0" fill="none"/>
</g>
 <g id="east-minimized-topright" transform="matrix(1 0 0 -1 109 128)">
  <rect x="0" y="0" width="0" height="0" fill="none"/>
</g>
 <g id="east-minimized-bottomright" transform="matrix(0 1 1 0 122 90)">
  <rect x="0" y="0" width="0" height="0" fill="none"/>
</g>
 <g id="group-expander-bottom" transform="matrix(1.2222 0 0 1.2222 -97 -16.778)">
  <path d="m211.5 89a4.5 4.5 0 0 0-4.5 4.5 4.5 4.5 0 0 0 4.5 4.5 4.5 4.5 0 0 0 4.5-4.5 4.5 4.5 0 0 0-4.5-4.5z" fill="#2ecc71"/>
  <path d="m211.08 91.455 9.7e-4 1.6306-1.6347 0.01145 7e-3 0.8079 1.6392 0.0091-6e-3 1.6343 0.8077-5e-3 7e-3 -1.6316 1.6395-2.7e-5v-0.81469h-1.6461l0.0204-1.6421z" fill="#fff"/>
 </g>
 <g id="group-expander-left" transform="matrix(1.2222 0 0 1.2222 -75 -16.778)">
  <path d="m211.5 89a4.5 4.5 0 0 0-4.5 4.5 4.5 4.5 0 0 0 4.5 4.5 4.5 4.5 0 0 0 4.5-4.5 4.5 4.5 0 0 0-4.5-4.5z" fill="#2ecc71"/>
  <path d="m211.08 91.455 9.7e-4 1.6306-1.6347 0.01145 7e-3 0.8079 1.6392 0.0091-6e-3 1.6343 0.8077-5e-3 7e-3 -1.6316 1.6395-2.7e-5v-0.81469h-1.6461l0.0204-1.6421z" fill="#fff"/>
 </g>
 <g id="group-expander-top" transform="matrix(1.2222 0 0 1.2222 -97 1.2222)">
  <path d="m211.5 89a4.5 4.5 0 0 0-4.5 4.5 4.5 4.5 0 0 0 4.5 4.5 4.5 4.5 0 0 0 4.5-4.5 4.5 4.5 0 0 0-4.5-4.5z" fill="#2ecc71"/>
  <path d="m211.08 91.455 9.7e-4 1.6306-1.6347 0.01145 7e-3 0.8079 1.6392 0.0091-6e-3 1.6343 0.8077-5e-3 7e-3 -1.6316 1.6395-2.7e-5v-0.81469h-1.6461l0.0204-1.6421z" fill="#fff"/>
 </g>
 <g id="group-expander-right" transform="matrix(1.2222 0 0 1.2222 -75 1.2222)">
  <path d="m211.5 89a4.5 4.5 0 0 0-4.5 4.5 4.5 4.5 0 0 0 4.5 4.5 4.5 4.5 0 0 0 4.5-4.5 4.5 4.5 0 0 0-4.5-4.5z" fill="#2ecc71"/>
  <path d="m211.08 91.455 9.7e-4 1.6306-1.6347 0.01145 7e-3 0.8079 1.6392 0.0091-6e-3 1.6343 0.8077-5e-3 7e-3 -1.6316 1.6395-2.7e-5v-0.81469h-1.6461l0.0204-1.6421z" fill="#fff"/>
 </g>
 <g id="normal-left" transform="matrix(-1,0,0,-1,36,71)">
  <rect x="0" y="0" width="0" height="0" fill="none"/>
</g>
 <g id="normal-right" transform="translate(0 34)">
  <rect x="0" y="0" width="0" height="0" fill="none"/>
</g>
 <g id="normal-center" transform="matrix(.96296 0 0 1 .18519 41.9)">
  <rect x="3" y="3" width="31" height="15" fill="#C0D9FF" rx="4"/>
</g>
 <g id="normal-top" transform="matrix(1,0,0,-1,0,72)" fill-opacity=".16">
  <rect x="0" y="0" width="0" height="0" fill="none"/>
</g>
 <g id="normal-topleft" transform="matrix(0,-1,-1,0,23,77)">
  <rect x="0" y="0" width="0" height="0" fill="none"/>
</g>
 <g id="normal-topright" transform="matrix(1,0,0,-1,0,64)">
  <rect x="0" y="0" width="0" height="0" fill="none"/>
</g>
 <g id="normal-bottom" transform="matrix(-1 0 0 1 36 33)">
  <rect x="0" y="0" width="0" height="0" fill="none"/>
</g>
 <g id="normal-bottomleft" transform="matrix(-1 0 0 1 36 41)">
  <rect x="0" y="0" width="0" height="0" fill="none"/>
</g>
 <g id="normal-bottomright" transform="matrix(0,1,1,0,13,28)">
  <rect x="0" y="0" width="0" height="0" fill="none"/>
</g>
 <g id="north-normal-left" transform="matrix(-1 0 0 1 72 34)">
  <rect x="0" y="0" width="0" height="0" fill="none"/>
</g>
 <g id="north-normal-right" transform="matrix(1,0,0,-1,36,71)">
  <rect x="0" y="0" width="0" height="0" fill="none"/>
</g>
 <g id="north-normal-center" transform="matrix(.96296 0 0 -1 36.185 63.1)">
  <rect x="3" y="3" width="31" height="15" fill="#C0D9FF" rx="4"/>
</g>
 <g id="north-normal-bottom" transform="translate(36 33)" fill-opacity=".16">
  <rect x="0" y="0" width="0" height="0" fill="none"/>
</g>
 <g id="north-normal-bottomleft" transform="matrix(0,1,-1,0,59,28)">
  <rect x="0" y="0" width="0" height="0" fill="none"/>
</g>
 <g id="north-normal-bottomright" transform="translate(36 41)">
  <rect x="0" y="0" width="0" height="0" fill="none"/>
</g>
 <g id="north-normal-top" transform="matrix(-1,0,0,-1,72,72)">
  <rect x="0" y="0" width="0" height="0" fill="none"/>
</g>
 <g id="north-normal-topleft" transform="matrix(-1,0,0,-1,72,64)">
  <rect x="0" y="0" width="0" height="0" fill="none"/>
</g>
 <g id="north-normal-topright" transform="matrix(0,-1,1,0,49,77)">
  <rect x="0" y="0" width="0" height="0" fill="none"/>
</g>
 <g id="west-normal-left" transform="matrix(-1 0 0 .84615 107 36.846)">
  <rect x="0" y="0" width="0" height="0" fill="none"/>
</g>
 <g id="west-normal-right" transform="matrix(1 0 0 -.84615 73 68.154)" fill-opacity=".16">
  <rect x="0" y="0" width="0" height="0" fill="none"/>
</g>
 <g id="west-normal-center" transform="matrix(1.037 0 0 -.84615 70.815 61.469)">
  <rect x="3" y="3" width="31" height="15" fill="#C0D9FF" rx="4"/>
</g>
 <g id="west-normal-bottom" transform="matrix(1.0769 0 0 1 70.615 32)">
  <rect x="0" y="0" width="0" height="0" fill="none"/>
</g>
 <g id="west-normal-topright" transform="matrix(0 -1 1 0 86 78)">
  <rect x="0" y="0" width="0" height="0" fill="none"/>
</g>
 <g id="west-normal-bottomright" transform="translate(73 40)">
  <rect x="0" y="0" width="0" height="0" fill="none"/>
</g>
 <g id="west-normal-top" transform="matrix(-1.0769 0 0 -1 109.38 73)">
  <rect x="0" y="0" width="0" height="0" fill="none"/>
</g>
 <g id="west-normal-topleft" transform="matrix(-1,0,0,-1,107,65)">
  <rect x="0" y="0" width="0" height="0" fill="none"/>
</g>
 <g id="west-normal-bottomleft" transform="matrix(0,1,-1,0,94,27)">
  <rect x="0" y="0" width="0" height="0" fill="none"/>
</g>
 <g id="east-normal-right" transform="matrix(1 0 0 .84615 109 36.846)">
  <rect x="0" y="0" width="0" height="0" fill="none"/>
</g>
 <g id="east-normal-left" transform="matrix(-1 0 0 -.84615 143 68.154)" fill-opacity=".16">
  <rect x="0" y="0" width="0" height="0" fill="none"/>
</g>
 <g id="east-normal-center" transform="matrix(-1.037 0 0 -.84615 145.19 61.469)">
  <rect x="3" y="3" width="31" height="15" fill="#C0D9FF" rx="4"/>
</g>
 <g id="east-normal-bottom" transform="matrix(-1.0769 0 0 1 145.38 32)">
  <rect x="0" y="0" width="0" height="0" fill="none"/>
</g>
 <g id="east-normal-topleft" transform="matrix(0,-1,-1,0,130,78)">
  <rect x="0" y="0" width="0" height="0" fill="none"/>
</g>
 <g id="east-normal-bottomleft" transform="matrix(-1 0 0 1 143 40)">
  <rect x="0" y="0" width="0" height="0" fill="none"/>
</g>
 <g id="east-normal-top" transform="matrix(1.0769 0 0 -1 106.62 73)">
  <rect x="0" y="0" width="0" height="0" fill="none"/>
</g>
 <g id="east-normal-topright" transform="matrix(1 0 0 -1 109 65)">
  <rect x="0" y="0" width="0" height="0" fill="none"/>
</g>
 <g id="east-normal-bottomright" transform="matrix(0 1 1 0 122 27)">
  <rect x="0" y="0" width="0" height="0" fill="none"/>
</g>
</svg>
