<?xml version="1.0" encoding="UTF-8"?>
<svg width="48" height="48" viewBox="0 0 48 48" xmlns="http://www.w3.org/2000/svg">
 <defs id="null"/>

 <!-- ── SOUTH orientation ─────────────────────────────────────── -->

 <!-- remove-normal -->
 <g id="remove-normal" transform="matrix(1.375,0,0,1.375,0,-24.75)">
  <rect style="opacity:0.001" width="16" height="16" x="0" y="34"/>
  <circle cx="8" cy="42" r="6" fill="#FF453A"/>
  <rect x="5" y="41.25" width="6" height="1.5" fill="#FFFFFF" rx="0.75"/>
 </g>

 <!-- add-normal -->
 <g id="add-normal" transform="matrix(1.375,0,0,1.375,0,-24.75)">
  <rect style="opacity:0.001" width="16" height="16" x="0" y="18"/>
  <circle cx="8" cy="26" r="6" fill="#4BBF4B"/>
  <rect x="7.25" y="22.5" width="1.5" height="7" fill="#FFFFFF" rx="0.75"/>
  <rect x="4.5" y="25.25" width="7" height="1.5" fill="#FFFFFF" rx="0.75"/>
 </g>

 <!-- open-normal -->
 <g id="open-normal" transform="matrix(1.375,0,0,1.375,0,-24.75)">
  <rect style="opacity:0.001" width="16" height="16" x="0" y="50"/>
  <circle cx="8" cy="58" r="6" fill="#4BBF4B"/>
  <path d="M 8 54.5 L 11 58 L 8 61.5 L 5 58 Z" fill="#FFFFFF"/>
 </g>

 <!-- remove-hover -->
 <g id="remove-hover" transform="matrix(1.375,0,0,1.375,22,-24.75)">
  <rect style="opacity:0.001" width="16" height="16" x="0" y="34"/>
  <circle cx="8" cy="42" r="6" fill="#FF453A" opacity="0.85"/>
  <rect x="5" y="41.25" width="6" height="1.5" fill="#FFFFFF" rx="0.75"/>
 </g>

 <!-- add-hover -->
 <g id="add-hover" transform="matrix(1.375,0,0,1.375,22,-24.75)">
  <rect style="opacity:0.001" width="16" height="16" x="0" y="18"/>
  <circle cx="8" cy="26" r="6" fill="#5CD45C"/>
  <rect x="7.25" y="22.5" width="1.5" height="7" fill="#FFFFFF" rx="0.75"/>
  <rect x="4.5" y="25.25" width="7" height="1.5" fill="#FFFFFF" rx="0.75"/>
 </g>

 <!-- open-hover -->
 <g id="open-hover" transform="matrix(1.375,0,0,1.375,22,-24.75)">
  <rect style="opacity:0.001" width="16" height="16" x="0" y="50"/>
  <circle cx="8" cy="58" r="6" fill="#5CD45C"/>
  <path d="M 8 54.5 L 11 58 L 8 61.5 L 5 58 Z" fill="#FFFFFF"/>
 </g>

 <!-- remove-pressed -->
 <g id="remove-pressed" transform="matrix(1.375,0,0,1.375,-22,-24.75)">
  <rect style="opacity:0.001" width="16" height="16" x="0" y="34"/>
  <circle cx="8" cy="42" r="6" fill="#FF453A" opacity="0.70"/>
  <rect x="5" y="41.25" width="6" height="1.5" fill="#FFFFFF" rx="0.75"/>
 </g>

 <!-- add-pressed -->
 <g id="add-pressed" transform="matrix(1.375,0,0,1.375,-22,-24.75)">
  <rect style="opacity:0.001" width="16" height="16" x="0" y="18"/>
  <circle cx="8" cy="26" r="6" fill="#3AA03A"/>
  <rect x="7.25" y="22.5" width="1.5" height="7" fill="#FFFFFF" rx="0.75"/>
  <rect x="4.5" y="25.25" width="7" height="1.5" fill="#FFFFFF" rx="0.75"/>
 </g>

 <!-- open-pressed -->
 <g id="open-pressed" transform="matrix(1.375,0,0,1.375,-22,-24.75)">
  <rect style="opacity:0.001" width="16" height="16" x="0" y="50"/>
  <circle cx="8" cy="58" r="6" fill="#3AA03A"/>
  <path d="M 8 54.5 L 11 58 L 8 61.5 L 5 58 Z" fill="#FFFFFF"/>
 </g>

</svg>
